<svg version="1.1" xmlns="http://www.w3.org/2000/svg" xmlns:xlink="http://www.w3.org/1999/xlink" width="377.50000000000006" height="330"><defs><clipPath id="FOJnWVSaiWWs"><path fill="none" stroke="none" d="M 77.505 48.769 L 77.505 51.234 C 77.505 66.3 65.19 78.517 50 78.517 C 34.81 78.517 22.495 66.3 22.495 51.233 L 22.495 48.768 C 22.495 63.836 34.809 76.051 50 76.051 C 65.191 76.051 77.505 63.837 77.505 48.769 Z"/></clipPath><clipPath id="yXrCrVgITKDV"><path fill="none" stroke="none" d="M 77.505 48.769 L 77.505 51.234 C 77.505 66.3 65.19 78.517 50 78.517 C 34.81 78.517 22.495 66.3 22.495 51.233 L 22.495 48.768 C 22.495 63.836 34.809 76.051 50 76.051 C 65.191 76.051 77.505 63.837 77.505 48.769 Z"/></clipPath></defs><g transform="translate(0,0)"><g><rect fill="#FFFFFF" stroke="none" x="0" y="0" width="377.50000000000006" height="330"/></g><g transform="translate(0,0) matrix(1,0,0,1,103.75000000000006,29)"><g><g transform="translate(0,0) scale(2.1,2.2)"><g><path fill="#FFFFFF" stroke="none" d="M 0 0 L 100 0 Q 100 0 100 0 L 100 100 Q 100 100 100 100 L 0 100 Q 0 100 0 100 L 0 0 Q 0 0 0 0 Z"/><g transform="scale(0.47619047619047616,0.45454545454545453)"><path fill="none" stroke="none" d="M 0 0 L 210 0 Q 210 0 210 0 L 210 220.00000000000003 Q 210 220.00000000000003 210 220.00000000000003 L 0 220.00000000000003 Q 0 220.00000000000003 0 220.00000000000003 L 0 0 Q 0 0 0 0 Z"/><path fill="none" stroke="#333333" d="M 0 0 M 0 0 L 210 0 Q 210 0 210 0 L 210 220.00000000000003 Q 210 220.00000000000003 210 220.00000000000003 L 0 220.00000000000003 Q 0 220.00000000000003 0 220.00000000000003 L 0 0 Q 0 0 0 0 Z" stroke-miterlimit="10" stroke-width="2"/></g></g></g></g></g><g transform="translate(0,0) matrix(1,0,0,1,127.50000000000006,270)"><g><g transform="translate(0,0) scale(1.5375,0.4)"><g><g transform="scale(0.6504065040650406,2.5)"><path fill="#FFFFFF" stroke="none" d="M 153.75 0 L 153.75 35 Q 153.75 40 76.875 40 Q 0 40 0 35 L 0 0 Q 0 -5 76.875 -5 Q 153.75 -5 153.75 0 Q 153.75 5 76.875 5 Q 0 5 0 0"/><path fill="none" stroke="#666666" d="M 153.75 0 M 153.75 0 L 153.75 35 Q 153.75 40 76.875 40 Q 0 40 0 35 L 0 0 Q 0 -5 76.875 -5 Q 153.75 -5 153.75 0 Q 153.75 5 76.875 5 Q 0 5 0 0" stroke-miterlimit="10" stroke-width="2"/></g></g></g></g></g><g transform="scale(1,1) matrix(1,0,0,1,131.60000000000005,270) translate(8,13)"><text fill="#000000" stroke="none" font-family="Arial" font-size="12px" font-style="normal" font-weight="normal" text-decoration="none" x="43.76035156249999" y="11">Storage</text></g><g transform="translate(0,0) matrix(1,0,0,1,123.75000000000006,79)"><g><g transform="translate(0,0) scale(1.575,1)"><g transform="scale(0.81,0.72)"><g><g transform="scale(0.7838526357044876,1.3888888888888888)"><path fill="#FFFFFF" stroke="none" d="M 0 0 L 127.57499999999999 0 L 127.57499999999999 72 Q 95.68124999999999 54 63.787499999999994 72 Q 31.893749999999997 90 0 72 L 0 0 Z"/><path fill="none" stroke="#333333" d="M 0 0 M 0 0 L 127.57499999999999 0 L 127.57499999999999 72 Q 95.68124999999999 54 63.787499999999994 72 Q 31.893749999999997 90 0 72 L 0 0 Z" stroke-miterlimit="10" stroke-width="2"/></g></g><g transform="translate(11.5,13.25)"><g><g transform="scale(0.7838526357044876,1.3888888888888888)"><path fill="#FFFFFF" stroke="none" d="M 0 0 L 127.57499999999999 0 L 127.57499999999999 72 Q 95.68124999999999 54 63.787499999999994 72 Q 31.893749999999997 90 0 72 L 0 0 Z"/><path fill="none" stroke="#333333" d="M 0 0 M 0 0 L 127.57499999999999 0 L 127.57499999999999 72 Q 95.68124999999999 54 63.787499999999994 72 Q 31.893749999999997 90 0 72 L 0 0 Z" stroke-miterlimit="10" stroke-width="2"/></g></g></g><g transform="translate(23,26.5)"><g><g transform="scale(0.7838526357044876,1.3888888888888888)"><path fill="#FFFFFF" stroke="none" d="M 0 0 L 127.57499999999999 0 L 127.57499999999999 72 Q 95.68124999999999 54 63.787499999999994 72 Q 31.893749999999997 90 0 72 L 0 0 Z"/><path fill="none" stroke="#333333" d="M 0 0 M 0 0 L 127.57499999999999 0 L 127.57499999999999 72 Q 95.68124999999999 54 63.787499999999994 72 Q 31.893749999999997 90 0 72 L 0 0 Z" stroke-miterlimit="10" stroke-width="2"/></g></g></g></g></g></g></g><g transform="translate(0,0) matrix(1,0,0,1,172.31462811656212,109)"><g><g transform="translate(0,0) scale(0.526002033874531,0.526002033874531) translate(-22.495,-21.483)"><g><g><g><g><g><path fill="#6D6F71" stroke="rgb(0,0,0)" d="M 50 21.483 C 65.19 21.483 77.505 33.704 77.505 48.768 C 77.505 63.836 65.191 76.051 50 76.051 C 34.809 76.051 22.495 63.837 22.495 48.769 C 22.495 33.704 34.81 21.483 50 21.483 Z" stroke-opacity="0" stroke-miterlimit="10"/></g></g><g><g><g><path fill="#484A4B" stroke="rgb(0,0,0)" d="M 77.505 48.769 L 77.505 51.234 C 77.505 66.3 65.19 78.517 50 78.517 C 34.81 78.517 22.495 66.3 22.495 51.233 L 22.495 48.768 C 22.495 63.836 34.809 76.051 50 76.051 C 65.191 76.051 77.505 63.837 77.505 48.769 Z" stroke-opacity="0" stroke-miterlimit="10"/></g></g><g clip-path="url(#FOJnWVSaiWWs)"><g><g><path fill="#484A4B" stroke="rgb(0,0,0)" d="M 77.505 48.769 L 77.505 51.234 C 77.505 52.619 77.401 53.978 77.202 55.3 L 77.202 52.839 C 77.401 51.509 77.505 50.155 77.505 48.769" stroke-opacity="0" stroke-miterlimit="10"/></g><g><path fill="#484A4B" stroke="rgb(0,0,0)" d="M 77.202 52.839 L 77.202 55.3 C 76.97 56.857 76.604 58.368 76.114 59.827 L 76.114 57.354 C 76.604 55.905 76.97 54.388 77.202 52.839" stroke-opacity="0" stroke-miterlimit="10"/></g><g><path fill="#484A4B" stroke="rgb(0,0,0)" d="M 76.114 57.354 L 76.114 59.827 C 75.544 61.534 74.802 63.175 73.917 64.718 L 73.917 62.257 C 74.802 60.712 75.544 59.071 76.114 57.354" stroke-opacity="0" stroke-miterlimit="10"/></g><g><path fill="#484A4B" stroke="rgb(0,0,0)" d="M 73.917 62.257 L 73.917 64.718 C 69.184 72.958 60.247 78.517 50 78.517 C 34.81 78.517 22.495 66.3 22.495 51.234 L 22.495 48.769 C 22.495 63.837 34.809 76.052 50 76.052 C 60.247 76.052 69.184 70.495 73.917 62.257" stroke-opacity="0" stroke-miterlimit="10"/></g></g></g></g></g><g><path fill="rgb(0,0,0)" stroke="#FFFFFF" d="M 58.499 48.751 A 8.499 8.499 0 1 0 58.498995750500356 48.7594989985835 Z" fill-opacity="0" stroke-miterlimit="10"/></g><g><path fill="#FFFFFF" stroke="rgb(0,0,0)" d="M 55.244 48.751 A 5.244 5.244 0 1 0 55.243997378000216 48.756243999126 Z" stroke-opacity="0" stroke-miterlimit="10"/></g></g></g></g></g></g><g transform="scale(1,1) matrix(1,0,0,1,174.31462811656212,109) translate(-14.032314058281024,32)"><text fill="#000000" stroke="none" font-family="Arial" font-size="12px" font-style="normal" font-weight="normal" text-decoration="none" x="2.484375" y="11">image_1</text></g><g transform="translate(0,0) matrix(1,0,0,1,229.81462811656212,109)"><g><g transform="translate(0,0) scale(0.526002033874531,0.526002033874531) translate(-22.495,-21.483)"><g><g><g><g><g><path fill="#6D6F71" stroke="rgb(0,0,0)" d="M 50 21.483 C 65.19 21.483 77.505 33.704 77.505 48.768 C 77.505 63.836 65.191 76.051 50 76.051 C 34.809 76.051 22.495 63.837 22.495 48.769 C 22.495 33.704 34.81 21.483 50 21.483 Z" stroke-opacity="0" stroke-miterlimit="10"/></g></g><g><g><g><path fill="#484A4B" stroke="rgb(0,0,0)" d="M 77.505 48.769 L 77.505 51.234 C 77.505 66.3 65.19 78.517 50 78.517 C 34.81 78.517 22.495 66.3 22.495 51.233 L 22.495 48.768 C 22.495 63.836 34.809 76.051 50 76.051 C 65.191 76.051 77.505 63.837 77.505 48.769 Z" stroke-opacity="0" stroke-miterlimit="10"/></g></g><g clip-path="url(#yXrCrVgITKDV)"><g><g><path fill="#484A4B" stroke="rgb(0,0,0)" d="M 77.505 48.769 L 77.505 51.234 C 77.505 52.619 77.401 53.978 77.202 55.3 L 77.202 52.839 C 77.401 51.509 77.505 50.155 77.505 48.769" stroke-opacity="0" stroke-miterlimit="10"/></g><g><path fill="#484A4B" stroke="rgb(0,0,0)" d="M 77.202 52.839 L 77.202 55.3 C 76.97 56.857 76.604 58.368 76.114 59.827 L 76.114 57.354 C 76.604 55.905 76.97 54.388 77.202 52.839" stroke-opacity="0" stroke-miterlimit="10"/></g><g><path fill="#484A4B" stroke="rgb(0,0,0)" d="M 76.114 57.354 L 76.114 59.827 C 75.544 61.534 74.802 63.175 73.917 64.718 L 73.917 62.257 C 74.802 60.712 75.544 59.071 76.114 57.354" stroke-opacity="0" stroke-miterlimit="10"/></g><g><path fill="#484A4B" stroke="rgb(0,0,0)" d="M 73.917 62.257 L 73.917 64.718 C 69.184 72.958 60.247 78.517 50 78.517 C 34.81 78.517 22.495 66.3 22.495 51.234 L 22.495 48.769 C 22.495 63.837 34.809 76.052 50 76.052 C 60.247 76.052 69.184 70.495 73.917 62.257" stroke-opacity="0" stroke-miterlimit="10"/></g></g></g></g></g><g><path fill="rgb(0,0,0)" stroke="#FFFFFF" d="M 58.499 48.751 A 8.499 8.499 0 1 0 58.498995750500356 48.7594989985835 Z" fill-opacity="0" stroke-miterlimit="10"/></g><g><path fill="#FFFFFF" stroke="rgb(0,0,0)" d="M 55.244 48.751 A 5.244 5.244 0 1 0 55.243997378000216 48.756243999126 Z" stroke-opacity="0" stroke-miterlimit="10"/></g></g></g></g></g></g><g transform="scale(1,1) matrix(1,0,0,1,231.81462811656212,109) translate(-14.532314058281024,32)"><text fill="#000000" stroke="none" font-family="Arial" font-size="12px" font-style="normal" font-weight="normal" text-decoration="none" x="2.65625" y="11">image_</text><text fill="#000000" stroke="none" font-family="Arial" font-size="12px" font-style="italic" font-weight="bold" text-decoration="none" x="42.013671875" y="11">n</text></g><g transform="scale(1,1) matrix(1,0,0,1,194.81462811656212,117) translate(2,0)"><text fill="#000000" stroke="none" font-family="Arial" font-size="12px" font-style="italic" font-weight="bold" text-decoration="none" x="12.1650390625" y="11">. . .</text></g><g transform="scale(1,1) matrix(1,0,0,1,79.81462811656212,55) translate(2,0)"><text fill="#000000" stroke="none" font-family="Arial" font-size="12px" font-style="normal" font-weight="normal" text-decoration="none" x="39.6513671875" y="11">Repositories</text></g><g transform="scale(1,1) matrix(1,0,0,1,52.50000000000007,10) translate(2,0)"><text fill="#000000" stroke="none" font-family="Arial" font-size="12px" font-style="normal" font-weight="bold" text-decoration="none" x="48.9912109375" y="11">Registry</text></g><g transform="translate(0,0) matrix(1,0,0,1,192.31462811656212,201)"><g><g><g transform="translate(1,-1)"><g><path fill="#FFFFFF" stroke="none" d="M 0 0 L 88.93537188343794 0 Q 88.93537188343794 0 88.93537188343794 0 L 88.93537188343794 29.999999999999996 Q 88.93537188343794 29.999999999999996 88.93537188343794 29.999999999999996 L 0 29.999999999999996 Q 0 29.999999999999996 0 29.999999999999996 L 0 0 Q 0 0 0 0 Z"/><g transform="scale(1,1)"><path fill="none" stroke="#666666" d="M 0 0 L 88.93537188343794 0 Q 88.93537188343794 0 88.93537188343794 0 L 88.93537188343794 29.999999999999996 Q 88.93537188343794 29.999999999999996 88.93537188343794 29.999999999999996 L 0 29.999999999999996 Q 0 29.999999999999996 0 29.999999999999996 L 0 0 Q 0 0 0 0 Z" stroke-miterlimit="10" stroke-width="2"/></g></g><g transform="translate(73.93537188343794,0) translate(0,-13)"><g transform="translate(0,0) scale(1,1)"><g><path fill="#666666" stroke="rgb(0,0,0)" d="M 26 2 L 4 2 L 4 12 L 0 12 L 0 30 L 16.031 30 L 16 28 L 26.041 28.012 L 26 2 Z" stroke-opacity="0" stroke-miterlimit="10"/></g><g><path fill="#FFFFFF" stroke="rgb(0,0,0)" d="M 23.977 4.035 L 5.977 4.035 L 6.011 25.916 L 23.997 25.916 L 23.977 4.035 Z M 22 16 L 8 16 L 8 14 L 22 14 L 22 16 Z M 22 12 L 8 12 L 8 10 L 22 10 L 22 12 Z M 22 8 L 8 8 L 8 6 L 22 6 L 22 8 Z" stroke-opacity="0" stroke-miterlimit="10"/></g><g><path fill="#FFFFFF" stroke="rgb(0,0,0)" d="M 12.008 28.005 L 14.003 28.005 Q 14.003 28.005 14.003 28.005 L 14.003 30 Q 14.003 30 14.003 30 L 12.008 30 Q 12.008 30 12.008 30 L 12.008 28.005 Q 12.008 28.005 12.008 28.005 Z" stroke-opacity="0" stroke-miterlimit="10"/></g><g><path fill="#FFFFFF" stroke="rgb(0,0,0)" d="M 0 14.016 L 3.99 14.016 Q 3.99 14.016 3.99 14.016 L 3.99 16.011 Q 3.99 16.011 3.99 16.011 L 0 16.011 Q 0 16.011 0 16.011 L 0 14.016 Q 0 14.016 0 14.016 Z" stroke-opacity="0" stroke-miterlimit="10"/></g><g><path fill="#ffffff" stroke="rgb(0,0,0)" d="M 4 28.004 L 4 16 L 0 16.016 L 0 30 L 12 30 L 12 28 L 4 28.004 Z" stroke-opacity="0" stroke-miterlimit="10"/></g></g></g><g><path fill="#ffffff" stroke="none" d="M 4 4 L 74.93537188343794 4 Q 74.93537188343794 4 74.93537188343794 4 L 74.93537188343794 25.999999999999996 Q 74.93537188343794 25.999999999999996 74.93537188343794 25.999999999999996 L 4 25.999999999999996 Q 4 25.999999999999996 4 25.999999999999996 L 4 4 Q 4 4 4 4 Z"/><g transform="scale(1,1)"><path fill="none" stroke="#ffffff" d="M 4 4 L 74.93537188343794 4 Q 74.93537188343794 4 74.93537188343794 4 L 74.93537188343794 25.999999999999996 Q 74.93537188343794 25.999999999999996 74.93537188343794 25.999999999999996 L 4 25.999999999999996 Q 4 25.999999999999996 4 25.999999999999996 L 4 4 Q 4 4 4 4 Z" stroke-miterlimit="10" stroke-width="2"/></g></g><g><path fill="#ffffff" stroke="none" d="M 72.93537188343794 17 L 84.93537188343794 17 Q 84.93537188343794 17 84.93537188343794 17 L 84.93537188343794 25.999999999999996 Q 84.93537188343794 25.999999999999996 84.93537188343794 25.999999999999996 L 72.93537188343794 25.999999999999996 Q 72.93537188343794 25.999999999999996 72.93537188343794 25.999999999999996 L 72.93537188343794 17 Q 72.93537188343794 17 72.93537188343794 17 Z"/><g transform="scale(1,1)"><path fill="none" stroke="#ffffff" d="M 72.93537188343794 17 L 84.93537188343794 17 Q 84.93537188343794 17 84.93537188343794 17 L 84.93537188343794 25.999999999999996 Q 84.93537188343794 25.999999999999996 84.93537188343794 25.999999999999996 L 72.93537188343794 25.999999999999996 Q 72.93537188343794 25.999999999999996 72.93537188343794 25.999999999999996 L 72.93537188343794 17 Q 72.93537188343794 17 72.93537188343794 17 Z" stroke-miterlimit="10" stroke-width="2"/></g></g></g></g></g></g><g transform="scale(1,1) matrix(1,0,0,1,193.68286460707654,201) translate(2,7.999999999999998)"><text fill="#000000" stroke="none" font-family="Arial" font-size="12px" font-style="normal" font-weight="normal" text-decoration="none" x="15.083824451204535" y="11">Reporting</text></g><g transform="translate(0,0) matrix(1,0,0,1,117.31462811656212,201)"><g><g><g transform="translate(1,-1)"><g><path fill="#FFFFFF" stroke="none" d="M 0 0 L 77.5 0 Q 77.5 0 77.5 0 L 77.5 30 Q 77.5 30 77.5 30 L 0 30 Q 0 30 0 30 L 0 0 Q 0 0 0 0 Z"/><g transform="scale(1,1)"><path fill="none" stroke="#666666" d="M 0 0 L 77.5 0 Q 77.5 0 77.5 0 L 77.5 30 Q 77.5 30 77.5 30 L 0 30 Q 0 30 0 30 L 0 0 Q 0 0 0 0 Z" stroke-miterlimit="10" stroke-width="2"/></g></g><g transform="translate(62.5,0) translate(0,-13)"><g transform="translate(0,0) scale(1,1)"><g><path fill="#666666" stroke="rgb(0,0,0)" d="M 4 2 L 4 12 L 0 12 L 0 30 L 16 30 L 16 28 L 26 28 L 26 8 L 20 2 L 4 2 Z" stroke-opacity="0" stroke-miterlimit="10"/></g><g><path fill="#FFFFFF" stroke="rgb(0,0,0)" d="M 19.75 4.172 L 23.75 8.172 L 19.75 8.172 L 19.75 4.172 Z" stroke-opacity="0" stroke-miterlimit="10"/></g><g><path fill="#FFFFFF" stroke="rgb(0,0,0)" d="M 14.001 28 L 4 28 L 4 14.015 L 0 14.015 L 0 30 L 14.001 30 L 14.001 28 Z" stroke-opacity="0" stroke-miterlimit="10"/></g><g><path fill="#FFFFFF" stroke="rgb(0,0,0)" d="M 18 10 L 18 4 L 6 4 L 6 26 L 24 26 L 24 10 L 18 10 Z M 22 24 L 8 24 L 8 22 L 22 22 L 22 24 Z M 22 20 L 8 20 L 8 18 L 22 18 L 22 20 Z M 22 16 L 8 16 L 8 14 L 22 14 L 22 16 Z" stroke-opacity="0" stroke-miterlimit="10"/></g><g><path fill="#ffffff" stroke="rgb(0,0,0)" d="M 2 16 L 0 15.969 L 0 30 L 2.016 30 L 2 16 Z" stroke-opacity="0" stroke-miterlimit="10"/></g></g></g><g><path fill="#ffffff" stroke="none" d="M 4 4 L 63.5 4 Q 63.5 4 63.5 4 L 63.5 26 Q 63.5 26 63.5 26 L 4 26 Q 4 26 4 26 L 4 4 Q 4 4 4 4 Z"/><g transform="scale(1,1)"><path fill="none" stroke="#ffffff" d="M 4 4 L 63.5 4 Q 63.5 4 63.5 4 L 63.5 26 Q 63.5 26 63.5 26 L 4 26 Q 4 26 4 26 L 4 4 Q 4 4 4 4 Z" stroke-miterlimit="10" stroke-width="2"/></g></g><g><path fill="#ffffff" stroke="none" d="M 61.5 17 L 73.5 17 Q 73.5 17 73.5 17 L 73.5 26 Q 73.5 26 73.5 26 L 61.5 26 Q 61.5 26 61.5 26 L 61.5 17 Q 61.5 17 61.5 17 Z"/><g transform="scale(1,1)"><path fill="none" stroke="#ffffff" d="M 61.5 17 L 73.5 17 Q 73.5 17 73.5 17 L 73.5 26 Q 73.5 26 73.5 26 L 61.5 26 Q 61.5 26 61.5 26 L 61.5 17 Q 61.5 17 61.5 17 Z" stroke-miterlimit="10" stroke-width="2"/></g></g></g></g></g></g><g transform="scale(1,1) matrix(1,0,0,1,118.50693580886981,201) translate(2,8)"><text fill="#000000" stroke="none" font-family="Arial" font-size="12px" font-style="normal" font-weight="normal" text-decoration="none" x="14.2032001201923" y="11">Logging</text></g><g transform="translate(0,0) matrix(-1.8369701987210297e-16,-1,1,-1.8369701987210297e-16,20.00000000000003,249.20000000000005)"><g><g transform="translate(0,0) scale(2.2,0.43999999999999995)"><g><path fill="#FFFFFF" stroke="none" d="M 0 0 L 100 0 Q 100 0 100 0 L 100 100 Q 100 100 100 100 L 0 100 Q 0 100 0 100 L 0 0 Q 0 0 0 0 Z"/><g transform="scale(0.45454545454545453,2.272727272727273)"><path fill="none" stroke="none" d="M 0 0 L 220.00000000000003 0 Q 220.00000000000003 0 220.00000000000003 0 L 220.00000000000003 43.99999999999999 Q 220.00000000000003 43.99999999999999 220.00000000000003 43.99999999999999 L 0 43.99999999999999 Q 0 43.99999999999999 0 43.99999999999999 L 0 0 Q 0 0 0 0 Z"/><path fill="none" stroke="#333333" d="M 0 0 M 0 0 L 220.00000000000003 0 Q 220.00000000000003 0 220.00000000000003 0 L 220.00000000000003 43.99999999999999 Q 220.00000000000003 43.99999999999999 220.00000000000003 43.99999999999999 L 0 43.99999999999999 Q 0 43.99999999999999 0 43.99999999999999 L 0 0 Q 0 0 0 0 Z" stroke-miterlimit="10" stroke-width="2"/></g></g></g></g></g><g transform="scale(1,1) matrix(-1.8369701987210297e-16,-1,1,-1.8369701987210297e-16,20.00000000000003,244.80000000000004) translate(8,14.999999999999996)"><text fill="#000000" stroke="none" font-family="Arial" font-size="12px" font-style="normal" font-weight="normal" text-decoration="none" x="12.905664062499966" y="11">Docker Registry Service API V2</text></g><g transform="translate(0,0) matrix(-1.8369701987210297e-16,-1,1,-1.8369701987210297e-16,64.00000000000013,249.1999999999999)"><g><g transform="translate(0,0) scale(2.2,0.44)"><g><path fill="#FFFFFF" stroke="none" d="M 0 0 L 100 0 Q 100 0 100 0 L 100 100 Q 100 100 100 100 L 0 100 Q 0 100 0 100 L 0 0 Q 0 0 0 0 Z"/><g transform="scale(0.45454545454545453,2.272727272727273)"><path fill="none" stroke="none" d="M 0 0 L 220.00000000000003 0 Q 220.00000000000003 0 220.00000000000003 0 L 220.00000000000003 44 Q 220.00000000000003 44 220.00000000000003 44 L 0 44 Q 0 44 0 44 L 0 0 Q 0 0 0 0 Z"/><path fill="none" stroke="#333333" d="M 0 0 M 0 0 L 220.00000000000003 0 Q 220.00000000000003 0 220.00000000000003 0 L 220.00000000000003 44 Q 220.00000000000003 44 220.00000000000003 44 L 0 44 Q 0 44 0 44 L 0 0 Q 0 0 0 0 Z" stroke-miterlimit="10" stroke-width="2"/></g></g></g></g></g><g transform="scale(1,1) matrix(-1.8369701987210297e-16,-1,1,-1.8369701987210297e-16,64.00000000000013,244.7999999999999) translate(8,15)"><text fill="#000000" stroke="none" font-family="Arial" font-size="12px" font-style="normal" font-weight="normal" text-decoration="none" x="17.215234374999937" y="11">Authentication &amp; Authorization</text></g><g transform="translate(0,0) matrix(-1.8369701987210297e-16,-1,1,-1.8369701987210297e-16,313.50000000000006,249)"><g><g transform="translate(0,0) scale(2.2,0.44)"><g><path fill="#FFFFFF" stroke="none" d="M 0 0 L 100 0 Q 100 0 100 0 L 100 100 Q 100 100 100 100 L 0 100 Q 0 100 0 100 L 0 0 Q 0 0 0 0 Z"/><g transform="scale(0.45454545454545453,2.272727272727273)"><path fill="none" stroke="none" d="M 0 0 L 220.00000000000003 0 Q 220.00000000000003 0 220.00000000000003 0 L 220.00000000000003 44 Q 220.00000000000003 44 220.00000000000003 44 L 0 44 Q 0 44 0 44 L 0 0 Q 0 0 0 0 Z"/><path fill="none" stroke="#333333" d="M 0 0 M 0 0 L 220.00000000000003 0 Q 220.00000000000003 0 220.00000000000003 0 L 220.00000000000003 44 Q 220.00000000000003 44 220.00000000000003 44 L 0 44 Q 0 44 0 44 L 0 0 Q 0 0 0 0 Z" stroke-miterlimit="10" stroke-width="2"/></g></g></g></g></g><g transform="scale(1,1) matrix(-1.8369701987210297e-16,-1,1,-1.8369701987210297e-16,313.50000000000006,244.6) translate(8,15)"><text fill="#000000" stroke="none" font-family="Arial" font-size="12px" font-style="normal" font-weight="normal" text-decoration="none" x="64.91933593749994" y="11">Notifications</text></g><g transform="matrix(1,0,0,1,199.87500000000006,244.5)"><g transform="translate(0,0)"><g transform="translate(-254.50000000000006,-246) translate(54.625,1.5) matrix(1,0,0,1,0,0)"><g><path fill="none" stroke="#000000" d="M 252.24242404917504 249 L 252.24242404917504 254.25 Q 252.24242404917504 259.5 242.24242404917504 259.5 L 214.37500000000006 259.5 Q 204.37500000000006 259.5 204.37500000000006 264.75 L 204.37500000000006 270" stroke-miterlimit="10" stroke-width="2"/></g></g></g></g></g></svg>